<?xml version="1.0" encoding="UTF-8"?>
<svg width="700pt" height="700pt" version="1.1" viewBox="0 0 700 700" xmlns="http://www.w3.org/2000/svg">
 <path d="m570 160h-304l92.398-91.602c10.148-10.145 14.109-24.934 10.398-38.793-3.7148-13.859-14.543-24.688-28.402-28.402-13.859-3.7109-28.648 0.25-38.793 10.398l-160 160c-7.4531 7.4922-11.633 17.633-11.633 28.199 0 10.566 4.1797 20.703 11.633 28.199l160 160c10.074 10.145 24.797 14.148 38.621 10.496 13.824-3.6523 24.648-14.402 28.398-28.199 3.75-13.801-0.14453-28.551-10.223-38.695l-92.398-91.602h304c10.965-0.015625 21.453 4.4727 29.016 12.414 7.5625 7.9414 11.531 18.637 10.984 29.586v158c0 10.609-4.2148 20.781-11.715 28.285-7.5039 7.5-17.676 11.715-28.285 11.715h-520c-14.289 0-27.496 7.625-34.641 20s-7.1445 27.625 0 40 20.352 20 34.641 20h520c31.824 0 62.348-12.645 84.852-35.148 22.504-22.504 35.148-53.027 35.148-84.852v-158c0.53516-32.172-11.871-63.211-34.434-86.148s-53.391-35.855-85.566-35.852z"/>
</svg>
